<svg width="53" height="53" viewBox="0 0 53 53" fill="none" xmlns="http://www.w3.org/2000/svg">
<path d="M22.5186 34.3729C16.5915 36.151 16.5915 31.4094 14.2207 30.8167M30.8165 37.9292V33.3416C30.861 32.7764 30.7846 32.2081 30.5925 31.6747C30.4004 31.1412 30.0969 30.6548 29.7022 30.2477C33.4245 29.8328 37.3363 28.4221 37.3363 21.9498C37.336 20.2947 36.6994 18.7031 35.5582 17.5044C36.0986 16.0565 36.0604 14.456 35.4515 13.0354C35.4515 13.0354 34.0527 12.6205 30.8165 14.7898C28.0996 14.0535 25.2356 14.0535 22.5186 14.7898C19.2824 12.6205 17.8836 13.0354 17.8836 13.0354C17.2748 14.456 17.2366 16.0565 17.777 17.5044C16.6272 18.712 15.99 20.318 15.9988 21.9853C15.9988 28.4103 19.9107 29.8209 23.6329 30.2832C23.2429 30.6862 22.9421 31.1669 22.7501 31.6938C22.5582 32.2207 22.4793 32.7822 22.5186 33.3416V37.9292" stroke="#CCFF01" stroke-width="2" stroke-linecap="round" stroke-linejoin="round"/>
</svg>
