<svg width="55" height="52" viewBox="0 0 55 52" fill="none" xmlns="http://www.w3.org/2000/svg">
<path d="M43.2401 23.2125V12.6157C43.2401 11.4535 42.5389 11.6023 42.0437 11.5902C40.8757 11.5618 37.6511 11.5219 34.0961 11.5902C28.7977 12.5303 29.3784 20.4145 29.225 23.2125C29.0986 25.5198 30.0511 25.5768 30.7633 25.5198C32.9852 25.4914 36.4889 25.2635 36.1471 27.6563C35.9762 32.1001 33.327 33.4674 32.0451 34.322C31.173 34.7714 30.7063 35.319 30.7633 35.6893V38.3385C30.7633 39.8767 31.7033 39.8767 32.0451 39.8767C41.3429 38.0992 43.3825 28.0266 43.2401 23.2125Z" fill="#CCFF01" stroke="#CCFF01" stroke-width="0.170915"/>
<path d="M25.7452 23.2125V12.6157C25.7452 11.4535 25.044 11.6023 24.5488 11.5902C23.3809 11.5618 20.1563 11.5219 16.6012 11.5902C11.3029 12.5303 11.8835 20.4145 11.7301 23.2125C11.6037 25.5198 12.5562 25.5768 13.2684 25.5198C15.4903 25.4914 18.994 25.2635 18.6522 27.6563C18.4813 32.1001 15.8321 33.4674 14.5503 34.322C13.6781 34.7714 13.2114 35.319 13.2684 35.6893V38.3385C13.2684 39.8767 14.2084 39.8767 14.5503 39.8767C23.848 38.0992 25.8876 28.0266 25.7452 23.2125Z" fill="#CCFF01" stroke="#CCFF01" stroke-width="0.170915"/>
</svg>
